<?xml version="1.0" encoding="iso-8859-1"?>
<!-- Generator: Adobe Illustrator 16.0.0, SVG Export Plug-In . SVG Version: 6.00 Build 0)  -->
<!DOCTYPE svg PUBLIC "-//W3C//DTD SVG 1.1//EN" "http://www.w3.org/Graphics/SVG/1.1/DTD/svg11.dtd">
<svg version="1.1" id="Capa_1" xmlns="http://www.w3.org/2000/svg" xmlns:xlink="http://www.w3.org/1999/xlink" x="0px" y="0px"
	 width="371.333px" height="371.333px" viewBox="0 0 371.333 371.333" style="enable-background:new 0 0 371.333 371.333;"
	 xml:space="preserve">
<g>
	<g>
		<path d="M182.234,202.298L14.637,257.741c28.211,66.582,94.165,113.291,171.03,113.291c50.271,0,95.867-19.988,129.298-52.439
			L182.234,202.298z"/>
		<path d="M170.667,0.301C75.142,7.939,0,87.873,0,185.365c0,15.12,1.821,29.815,5.232,43.889l165.435-54.727V0.301z"/>
		<path d="M311.888,49.217C282.194,21.674,243.481,3.726,200.667,0.301v150.946L311.888,49.217z"/>
		<path d="M334.749,296.041c22.982-30.907,36.584-69.202,36.584-110.676c0-42.997-14.621-82.576-39.155-114.049L208.136,185.107
			L334.749,296.041z"/>
	</g>
</g>
<g>
</g>
<g>
</g>
<g>
</g>
<g>
</g>
<g>
</g>
<g>
</g>
<g>
</g>
<g>
</g>
<g>
</g>
<g>
</g>
<g>
</g>
<g>
</g>
<g>
</g>
<g>
</g>
<g>
</g>
</svg>
