<svg class="siteLogo" width="150px" height="150px" viewBox="0 0 150 150" version="1.1" xmlns="http://www.w3.org/2000/svg" xmlns:xlink="http://www.w3.org/1999/xlink">
    <g stroke="none" stroke-width="1" fill="none" fill-rule="evenodd">
        <circle fill="#363E70" cx="75" cy="75" r="75"></circle>
        <circle fill="#FFFFFF" cx="75" cy="75" r="70"></circle>
        <path d="M148,62.7628105 C148,90.1165381 144.841796,106.221078 138.525387,111.07643 C117.090216,127.553402 121.601694,138.653356 118.209275,132.0769 C114.443631,124.776922 106.38352,115.880466 94.0289431,105.38753 L92.8199508,111 L86.0391927,98.8514225 C85.2721291,98.2449459 84.4923286,97.6337343 83.6997912,97.0177877 L83.69935,99.1079368 L74.436444,90.3325297 C73.9453728,90.0916404 73.4627387,89.8501466 72.9885419,89.6080485 L72.9895239,92.4376271 L65.6433705,85.3704958 C62.8753118,83.5425481 60.561769,81.6820419 58.7027419,79.7889772 C53.1956575,78.9058886 48.0778217,78.2846739 43.3495214,77.9248635 C38.2520919,77.5369635 33.0574817,77.2591546 27.7656908,77.0914371 C22.5779123,76.5504443 19.3050155,75.8781543 17.9470004,75.0745672 C16.5889854,74.27098 15.3150819,73.210696 14.1252902,71.893715 L14.1252902,71.893715 L51.5900736,71.893715 C50.547415,70.4865421 49.5922755,69.5990322 48.724655,69.2311855 C47.8570345,68.8633387 46.4624054,68.6029305 44.5407678,68.4499608 L44.5407678,68.4499608 L9,68.4499608 C11.9492412,63.4266235 16.5989142,60.4070177 22.949019,59.3911433 C28.6845976,58.4735794 38.5496458,58.0099174 52.5441637,58.0001574 L54.0593778,58.0008486 C54.809283,58.0020378 55.5705611,58.0044772 56.3432122,58.0081666 C57.7352604,55.927022 59.5624185,53.814142 61.8244622,51.6701098 C77.1296156,37.1634301 105.854795,40.860997 148,62.7628105 Z M77,57 C75.3431458,57 74,58.3431458 74,60 C74,61.6568542 75.3431458,63 77,63 C78.6568542,63 80,61.6568542 80,60 C80,58.3431458 78.6568542,57 77,57 Z" id="Combined-Shape" fill="#363E70"></path>
    </g>
</svg>
